<svg width="178" height="205" viewBox="0 0 178 205" fill="none" xmlns="http://www.w3.org/2000/svg">
<rect width="178" height="205" rx="17" fill="black"/>
<ellipse cx="32" cy="43.4889" rx="25" ry="24.4889" fill="white"/>
<path d="M29.8813 73.4667V67.5555H32.4237V73.4667L31.1525 76L29.8813 73.4667Z" fill="white" stroke="white"/>
<path d="M22.3301 29.4062L30.6973 50.2891L39.0645 29.4062H43.4414V55H40.0664V45.0332L40.3828 34.2754L31.9805 55H29.3965L21.0117 34.3281L21.3457 45.0332V55H17.9707V29.4062H22.3301Z" fill="black"/>
<ellipse cx="146" cy="43.4889" rx="25" ry="24.4889" fill="white"/>
<path d="M143.881 73.4667V67.5555H146.424V73.4667L145.153 76L143.881 73.4667Z" fill="white" stroke="white"/>
<ellipse cx="89" cy="43.4889" rx="25" ry="24.4889" fill="white"/>
<path d="M86.8813 73.4667V67.5555H89.4237V73.4667L88.1525 76L86.8813 73.4667Z" fill="white" stroke="white"/>
<path d="M88.6836 48.2363L93.1133 33.9805H96.5938L88.9473 55.9355C87.7637 59.0996 85.8828 60.6816 83.3047 60.6816L82.6895 60.6289L81.4766 60.4004V57.7637L82.3555 57.834C83.457 57.834 84.3125 57.6113 84.9219 57.166C85.543 56.7207 86.0527 55.9062 86.4512 54.7227L87.1719 52.7891L80.3867 33.9805H83.9375L88.6836 48.2363Z" fill="black"/>
<rect x="29" y="128" width="121" height="44" rx="8" fill="white"/>
<path d="M86 180.64V172H89V180.64L87.5 184L86 180.64Z" fill="white" stroke="white"/>
<path d="M141.346 44.9805V55H137.971V29.4062H147.41C150.211 29.4062 152.402 30.1211 153.984 31.5508C155.578 32.9805 156.375 34.873 156.375 37.2285C156.375 39.7129 155.596 41.6289 154.037 42.9766C152.49 44.3125 150.27 44.9805 147.375 44.9805H141.346ZM141.346 42.2207H147.41C149.215 42.2207 150.598 41.7988 151.559 40.9551C152.52 40.0996 153 38.8691 153 37.2637C153 35.7402 152.52 34.5215 151.559 33.6074C150.598 32.6934 149.279 32.2188 147.604 32.1836H141.346V42.2207Z" fill="black"/>
<path d="M68.0039 161V143.938H73.582C75.4336 143.938 76.8242 144.32 77.7539 145.086C78.6914 145.852 79.1602 146.984 79.1602 148.484C79.1602 149.281 78.9336 149.988 78.4805 150.605C78.0273 151.215 77.4102 151.688 76.6289 152.023C77.5508 152.281 78.2773 152.773 78.8086 153.5C79.3477 154.219 79.6172 155.078 79.6172 156.078C79.6172 157.609 79.1211 158.812 78.1289 159.688C77.1367 160.562 75.7344 161 73.9219 161H68.0039ZM70.2539 153.02V159.16H73.9688C75.0156 159.16 75.8398 158.891 76.4414 158.352C77.0508 157.805 77.3555 157.055 77.3555 156.102C77.3555 154.047 76.2383 153.02 74.0039 153.02H70.2539ZM70.2539 151.215H73.6523C74.6367 151.215 75.4219 150.969 76.0078 150.477C76.6016 149.984 76.8984 149.316 76.8984 148.473C76.8984 147.535 76.625 146.855 76.0781 146.434C75.5312 146.004 74.6992 145.789 73.582 145.789H70.2539V151.215ZM84.9727 161H82.8047V143H84.9727V161ZM87.8789 154.543C87.8789 153.301 88.1211 152.184 88.6055 151.191C89.0977 150.199 89.7773 149.434 90.6445 148.895C91.5195 148.355 92.5156 148.086 93.6328 148.086C95.3594 148.086 96.7539 148.684 97.8164 149.879C98.8867 151.074 99.4219 152.664 99.4219 154.648V154.801C99.4219 156.035 99.1836 157.145 98.707 158.129C98.2383 159.105 97.5625 159.867 96.6797 160.414C95.8047 160.961 94.7969 161.234 93.6562 161.234C91.9375 161.234 90.543 160.637 89.4727 159.441C88.4102 158.246 87.8789 156.664 87.8789 154.695V154.543ZM90.0586 154.801C90.0586 156.207 90.3828 157.336 91.0312 158.188C91.6875 159.039 92.5625 159.465 93.6562 159.465C94.7578 159.465 95.6328 159.035 96.2812 158.176C96.9297 157.309 97.2539 156.098 97.2539 154.543C97.2539 153.152 96.9219 152.027 96.2578 151.168C95.6016 150.301 94.7266 149.867 93.6328 149.867C92.5625 149.867 91.6992 150.293 91.043 151.145C90.3867 151.996 90.0586 153.215 90.0586 154.801ZM101.625 154.555C101.625 152.578 102.082 151.008 102.996 149.844C103.91 148.672 105.121 148.086 106.629 148.086C108.176 148.086 109.383 148.633 110.25 149.727L110.355 148.32H112.336V160.695C112.336 162.336 111.848 163.629 110.871 164.574C109.902 165.52 108.598 165.992 106.957 165.992C106.043 165.992 105.148 165.797 104.273 165.406C103.398 165.016 102.73 164.48 102.27 163.801L103.395 162.5C104.324 163.648 105.461 164.223 106.805 164.223C107.859 164.223 108.68 163.926 109.266 163.332C109.859 162.738 110.156 161.902 110.156 160.824V159.734C109.289 160.734 108.105 161.234 106.605 161.234C105.121 161.234 103.918 160.637 102.996 159.441C102.082 158.246 101.625 156.617 101.625 154.555ZM103.805 154.801C103.805 156.23 104.098 157.355 104.684 158.176C105.27 158.988 106.09 159.395 107.145 159.395C108.512 159.395 109.516 158.773 110.156 157.531V151.742C109.492 150.531 108.496 149.926 107.168 149.926C106.113 149.926 105.289 150.336 104.695 151.156C104.102 151.977 103.805 153.191 103.805 154.801Z" fill="black"/>
</svg>
